# xmcd
#
# Track frame offsets: 
#        150
#        19202
#        38242
#        57756
#        76694
#        90980
#        114458
#        130108
#        144062
#        164801
#        181166
#        204953
#
# Disc length: 2959 seconds
#
# Revision: 0
# Processed by: cddbd v1.5.2PL0 Copyright (c) Steve Scherf et al.
# Submitted via: ExactAudioCopy v0.90b4
#
DISCID=8d0b8d0c
DTITLE=Rodney Crowell - Acoustic Classics
DYEAR=2018
DGENRE=Country
TTITLE0=Earthbound
TTITLE1=Leaving Louisiana in the Broad Dayligh
TTITLE2=Anything But Tame
TTITLE3=Making Memories of Us
TTITLE4=Lovin' All Night
TTITLE5=Shame on the Moon Redux
TTITLE6=I Couldn't Leave You If I Tried
TTITLE7=She's Crazy For Leaving
TTITLE8=After All This Time
TTITLE9=Tennessee Wedding
TTITLE10=I Ain't Living Long Like This
TTITLE11=Please Remember Me
EXTD=
EXTT0=
EXTT1=
EXTT2=
EXTT3=
EXTT4=
EXTT5=
EXTT6=
EXTT7=
EXTT8=
EXTT9=
EXTT10=
EXTT11=
PLAYORDER=
